<svg width="59" height="53" viewBox="0 0 59 53" fill="none" xmlns="http://www.w3.org/2000/svg">
<path d="M14.5825 16.7043C16.779 16.7043 18.5595 15.1016 18.5595 13.1247C18.5595 11.1478 16.779 9.54517 14.5825 9.54517C12.386 9.54517 10.6055 11.1478 10.6055 13.1247C10.6055 15.1016 12.386 16.7043 14.5825 16.7043Z" fill="#F4CE14"/>
<path d="M10.6055 21.4772C10.6055 20.1592 11.7925 19.0908 13.2568 19.0908H15.9082C17.3725 19.0908 18.5595 20.1592 18.5595 21.4772V40.5681C18.5595 41.8861 17.3725 42.9545 15.9082 42.9545H13.2568C11.7925 42.9545 10.6055 41.8861 10.6055 40.5681V21.4772Z" fill="#F4CE14"/>
<path d="M26.5134 42.9545H29.1648C30.6291 42.9545 31.8161 41.8861 31.8161 40.5681V29.8295C31.8161 26.2499 39.7702 23.8635 39.7702 28.6363V40.569C39.7702 41.887 40.9572 42.9545 42.4215 42.9545H45.0729C46.5372 42.9545 47.7242 41.8861 47.7242 40.5681V26.2499C47.7242 21.4772 43.7472 19.0908 38.4445 19.0908C33.1418 19.0908 31.8161 22.6704 31.8161 22.6704V21.4772C31.8161 20.1592 30.6291 19.0908 29.1648 19.0908H26.5134C25.0491 19.0908 23.8621 20.1592 23.8621 21.4772V40.5681C23.8621 41.8861 25.0491 42.9545 26.5134 42.9545Z" fill="#F4CE14"/>
<path fill-rule="evenodd" clip-rule="evenodd" d="M50.3757 0C54.7687 0 58.3297 3.20524 58.3297 7.15909V45.3409C58.3297 49.2949 54.7687 52.5 50.3757 52.5H7.95405C3.56116 52.5 0 49.2949 0 45.3409V7.15909C0 3.20524 3.56116 0 7.95405 0H50.3757ZM50.3757 4.77273C51.84 4.77273 53.027 5.84115 53.027 7.15909V45.3409C53.027 46.6589 51.84 47.7273 50.3757 47.7273H7.95405C6.48976 47.7273 5.3027 46.6589 5.3027 45.3409V7.15909C5.3027 5.84115 6.48976 4.77273 7.95405 4.77273H50.3757Z" fill="#F4CE14"/>
</svg>
